<svg xmlns="http://www.w3.org/2000/svg" viewBox="0 0 410 404" fill="none">
  <defs>
    <linearGradient id="vite1" x1="88.7" x2="349.2" y1="19.7" y2="375.2" gradientUnits="userSpaceOnUse">
      <stop stop-color="#41D1FF"/>
      <stop offset="1" stop-color="#BD34FE"/>
    </linearGradient>
    <linearGradient id="vite2" x1="139.7" x2="296.6" y1="176.7" y2="439.6" gradientUnits="userSpaceOnUse">
      <stop stop-color="#FFEA83"/>
      <stop offset="0.083" stop-color="#FFDD35"/>
      <stop offset="1" stop-color="#FFA800"/>
    </linearGradient>
  </defs>
  <path d="M399.1 94.7c8.8-28-21.6-57-50.6-50.6L10 159c-7.8 1.7-12.4 9.7-10 17.4l80.2 247.8c8.6 26.7 45 30.4 61.7 6.3l38.6-56.2c2.2-3.2 6.9-3 8.8 0.3l38.3 64.7c13.9 23.5 48.5 19.8 56.1-6.3L399.1 94.7z" fill="url(#vite1)"/>
  <path d="M349.7 44.1L51.4 137.5c-3.5 1.2-4.5 5.7-1.9 8.1L175.3 249c3.4 3.1 9 1.8 10.3-2.5l42.8-142.6c1-3.4 5.7-4.1 7.7-1.1l85.7 132.5c2.4 3.7 7.7 3.3 9.4-0.7L350.7 51.6c1.5-3.9-2.3-7.5-6-6.4z" fill="#FFFAFA"/>
  <path d="M292.3 347.5c-3.5 10.5-19.1 8.7-19.1-2.3V229.1c0-3.7-4.8-5-7.2-2.1l-64.5 83.3c-5.9 7.6-17.9 3.6-17.9-6.1V150.2c0-3.5-4.5-4.9-6.7-2.3l-40.8 47.5c-5.6 6.6-16.3 2.7-16.3-6.1V102.6c0-2.6 2.6-4.4 5-3.5l183.8 67.8c3.7 1.3 5.3 5.4 3.5 8.9l-72.8 145.7z" fill="url(#vite2)"/>
</svg>
